<?xml version="1.0" encoding="UTF-8" standalone="no"?>
<svg
   xmlns:dc="http://purl.org/dc/elements/1.1/"
   xmlns:cc="http://creativecommons.org/ns#"
   xmlns:rdf="http://www.w3.org/1999/02/22-rdf-syntax-ns#"
   xmlns:svg="http://www.w3.org/2000/svg"
   xmlns="http://www.w3.org/2000/svg"
   xmlns:xlink="http://www.w3.org/1999/xlink"
   xmlns:sodipodi="http://sodipodi.sourceforge.net/DTD/sodipodi-0.dtd"
   xmlns:inkscape="http://www.inkscape.org/namespaces/inkscape"
   width="129.25"
   height="129.25"
   viewBox="0 0 34.196965 34.196965"
   version="1.1"
   id="svg1240"
   inkscape:version="1.0.2 (e86c870879, 2021-01-15)"
   sodipodi:docname="Logo.svg"
   inkscape:export-filename="/mnt/Daten/tmp/node/finda.fish/client/static/og-logo.png"
   inkscape:export-xdpi="371.37"
   inkscape:export-ydpi="371.37">
  <defs
     id="defs1234">
    <inkscape:path-effect
       effect="bspline"
       id="path-effect1827"
       is_visible="true"
       lpeversion="1"
       weight="33.333333"
       steps="2"
       helper_size="0"
       apply_no_weight="true"
       apply_with_weight="true"
       only_selected="false" />
    <inkscape:path-effect
       effect="bspline"
       id="path-effect1825"
       is_visible="true"
       lpeversion="1"
       weight="33.333333"
       steps="2"
       helper_size="0"
       apply_no_weight="true"
       apply_with_weight="true"
       only_selected="false" />
    <inkscape:path-effect
       effect="bspline"
       id="path-effect1823"
       is_visible="true"
       lpeversion="1"
       weight="33.333333"
       steps="2"
       helper_size="0"
       apply_no_weight="true"
       apply_with_weight="true"
       only_selected="false" />
    <inkscape:path-effect
       effect="bspline"
       id="path-effect1821"
       is_visible="true"
       lpeversion="1"
       weight="33.333333"
       steps="2"
       helper_size="0"
       apply_no_weight="true"
       apply_with_weight="true"
       only_selected="false" />
    <inkscape:path-effect
       effect="bspline"
       id="path-effect1819"
       is_visible="true"
       lpeversion="1"
       weight="33.333333"
       steps="2"
       helper_size="0"
       apply_no_weight="true"
       apply_with_weight="true"
       only_selected="false" />
    <inkscape:path-effect
       effect="bspline"
       id="path-effect1817"
       is_visible="true"
       lpeversion="1"
       weight="33.333333"
       steps="2"
       helper_size="0"
       apply_no_weight="true"
       apply_with_weight="true"
       only_selected="false" />
    <inkscape:path-effect
       effect="bspline"
       id="path-effect1815"
       is_visible="true"
       lpeversion="1"
       weight="33.333333"
       steps="2"
       helper_size="0"
       apply_no_weight="true"
       apply_with_weight="true"
       only_selected="false" />
    <inkscape:path-effect
       effect="bspline"
       id="path-effect1813"
       is_visible="true"
       lpeversion="1"
       weight="33.333333"
       steps="2"
       helper_size="0"
       apply_no_weight="true"
       apply_with_weight="true"
       only_selected="false" />
    <inkscape:path-effect
       effect="bspline"
       id="path-effect1811"
       is_visible="true"
       lpeversion="1"
       weight="33.333333"
       steps="2"
       helper_size="0"
       apply_no_weight="true"
       apply_with_weight="true"
       only_selected="false" />
    <inkscape:path-effect
       effect="bspline"
       id="path-effect1809"
       is_visible="true"
       lpeversion="1"
       weight="33.333333"
       steps="2"
       helper_size="0"
       apply_no_weight="true"
       apply_with_weight="true"
       only_selected="false" />
    <inkscape:path-effect
       effect="bspline"
       id="path-effect1807"
       is_visible="true"
       lpeversion="1"
       weight="33.333333"
       steps="2"
       helper_size="0"
       apply_no_weight="true"
       apply_with_weight="true"
       only_selected="false" />
    <inkscape:path-effect
       effect="bspline"
       id="path-effect1805"
       is_visible="true"
       lpeversion="1"
       weight="33.333333"
       steps="2"
       helper_size="0"
       apply_no_weight="true"
       apply_with_weight="true"
       only_selected="false" />
    <inkscape:path-effect
       effect="bspline"
       id="path-effect1803"
       is_visible="true"
       lpeversion="1"
       weight="33.333333"
       steps="2"
       helper_size="0"
       apply_no_weight="true"
       apply_with_weight="true"
       only_selected="false" />
    <style
       type="text/css"
       id="style2033"><![CDATA[
    .outline { stroke:none; stroke-width:0 }
  ]]></style>
    <g
       id="heart">
      <path
         d="M 0,200 V 0 h 200 a 100,100 90 0 1 0,200 100,100 90 0 1 -200,0 z"
         id="path2035" />
    </g>
    <inkscape:path-effect
       effect="bspline"
       id="path-effect1061"
       is_visible="true"
       lpeversion="1"
       weight="33.333333"
       steps="2"
       helper_size="0"
       apply_no_weight="true"
       apply_with_weight="true"
       only_selected="false" />
    <inkscape:path-effect
       effect="bspline"
       id="path-effect1069"
       is_visible="true"
       lpeversion="1"
       weight="33.333333"
       steps="2"
       helper_size="0"
       apply_no_weight="true"
       apply_with_weight="true"
       only_selected="false" />
    <inkscape:path-effect
       effect="bspline"
       id="path-effect1065"
       is_visible="true"
       lpeversion="1"
       weight="33.333333"
       steps="2"
       helper_size="0"
       apply_no_weight="true"
       apply_with_weight="true"
       only_selected="false" />
    <inkscape:path-effect
       effect="bspline"
       id="path-effect1073"
       is_visible="true"
       lpeversion="1"
       weight="33.333333"
       steps="2"
       helper_size="0"
       apply_no_weight="true"
       apply_with_weight="true"
       only_selected="false" />
    <inkscape:path-effect
       effect="bspline"
       id="path-effect1077"
       is_visible="true"
       lpeversion="1"
       weight="33.333333"
       steps="2"
       helper_size="0"
       apply_no_weight="true"
       apply_with_weight="true"
       only_selected="false" />
    <inkscape:path-effect
       effect="bspline"
       id="path-effect1089"
       is_visible="true"
       lpeversion="1"
       weight="33.333333"
       steps="2"
       helper_size="0"
       apply_no_weight="true"
       apply_with_weight="true"
       only_selected="false" />
    <inkscape:path-effect
       effect="bspline"
       id="path-effect1093"
       is_visible="true"
       lpeversion="1"
       weight="33.333333"
       steps="2"
       helper_size="0"
       apply_no_weight="true"
       apply_with_weight="true"
       only_selected="false" />
    <inkscape:path-effect
       effect="bspline"
       id="path-effect1097"
       is_visible="true"
       lpeversion="1"
       weight="33.333333"
       steps="2"
       helper_size="0"
       apply_no_weight="true"
       apply_with_weight="true"
       only_selected="false" />
    <inkscape:path-effect
       effect="bspline"
       id="path-effect1101"
       is_visible="true"
       lpeversion="1"
       weight="33.333333"
       steps="2"
       helper_size="0"
       apply_no_weight="true"
       apply_with_weight="true"
       only_selected="false" />
    <inkscape:path-effect
       effect="bspline"
       id="path-effect1105"
       is_visible="true"
       lpeversion="1"
       weight="33.333333"
       steps="2"
       helper_size="0"
       apply_no_weight="true"
       apply_with_weight="true"
       only_selected="false" />
    <inkscape:path-effect
       effect="bspline"
       id="path-effect1109"
       is_visible="true"
       lpeversion="1"
       weight="33.333333"
       steps="2"
       helper_size="0"
       apply_no_weight="true"
       apply_with_weight="true"
       only_selected="false" />
    <inkscape:path-effect
       effect="bspline"
       id="path-effect1221"
       is_visible="true"
       lpeversion="1"
       weight="33.333333"
       steps="2"
       helper_size="0"
       apply_no_weight="true"
       apply_with_weight="true"
       only_selected="false" />
    <inkscape:path-effect
       effect="bspline"
       id="path-effect1217"
       is_visible="true"
       lpeversion="1"
       weight="33.333333"
       steps="2"
       helper_size="0"
       apply_no_weight="true"
       apply_with_weight="true"
       only_selected="false" />
  </defs>
  <sodipodi:namedview
     id="base"
     pagecolor="#ffffff"
     bordercolor="#666666"
     borderopacity="1.0"
     inkscape:pageopacity="0"
     inkscape:pageshadow="2"
     inkscape:zoom="6.1953125"
     inkscape:cx="64.625"
     inkscape:cy="64.625"
     inkscape:document-units="px"
     inkscape:current-layer="layer5"
     inkscape:document-rotation="0"
     showgrid="false"
     units="px"
     inkscape:window-width="1680"
     inkscape:window-height="1021"
     inkscape:window-x="1680"
     inkscape:window-y="0"
     inkscape:window-maximized="1"
     inkscape:snap-global="false"
     inkscape:snap-page="true"
     inkscape:snap-object-midpoints="true"
     inkscape:snap-bbox="true"
     fit-margin-top="0"
     fit-margin-left="0"
     fit-margin-right="0"
     fit-margin-bottom="0" />
  <metadata
     id="metadata1237">
    <rdf:RDF>
      <cc:Work
         rdf:about="">
        <dc:format>image/svg+xml</dc:format>
        <dc:type
           rdf:resource="http://purl.org/dc/dcmitype/StillImage" />
        <dc:title></dc:title>
      </cc:Work>
    </rdf:RDF>
  </metadata>
  <g
     inkscape:label="fish"
     inkscape:groupmode="layer"
     id="layer1"
     style="display:inline"
     transform="translate(0.16536251,0.16536251)"
     sodipodi:insensitive="true">
    <g
       id="g1873"
       style="display:inline">
      <path
         id="path1067"
         style="display:inline;fill:#0088aa;stroke:none;stroke-width:1.32723px;stroke-linecap:butt;stroke-linejoin:miter;stroke-opacity:1"
         d="M 23.779297,31.615234 A 51.637565,51.637565 0 0 0 12.363281,64 51.637565,51.637565 0 0 0 20.576172,91.943359 c 4.208384,0.727195 5.792875,0.02725 7.9375,-1.279297 2.635663,-1.605699 6.190485,-4.090101 8.867187,-5.443359 2.676701,-1.353262 4.474479,-1.574372 6.503907,-2.634765 2.029427,-1.060398 4.289767,-2.959099 6.107422,-5.271485 1.817658,-2.312393 3.192686,-5.040237 4.394531,-9.210937 1.201833,-4.170701 2.230373,-9.785906 0.08008,-14.613282 C 52.31651,48.662863 46.985434,44.625041 43.289062,41.544922 39.592687,38.46481 37.533105,36.343241 34.160156,34.716797 31.076583,33.229895 26.943358,32.18209 23.779297,31.615234 Z"
         transform="scale(0.26458)" />
      <path
         id="path1063"
         style="display:inline;fill:#00ccff;fill-opacity:1;stroke:none;stroke-width:1.32723px;stroke-linecap:butt;stroke-linejoin:miter;stroke-opacity:1"
         d="m 12.382812,65.439453 a 51.637565,51.637565 0 0 0 8.876954,27.539063 c 0.404171,-0.499441 0.716723,-1.084103 0.933593,-1.767578 0.892488,-2.8127 0.206973,-7.269387 -0.80664,-10.425782 -1.013609,-3.156387 -2.355941,-5.013238 -3.734375,-7.583984 -1.261305,-2.352305 -2.570287,-5.296431 -5.269532,-7.761719 z"
         transform="scale(0.26458)" />
      <path
         style="display:inline;fill:#2a7fff;stroke:none;stroke-width:0.351159px;stroke-linecap:butt;stroke-linejoin:miter;stroke-opacity:1"
         d="M 13.748623,12.811283 C 12.933666,12.405138 11.672492,11.779895 10.718488,11.565998 9.764483,11.352102 9.1178754,11.549819 8.4418165,11.82237 7.7657564,12.094916 7.0603657,12.442267 6.5525773,12.939372 6.0447902,13.436478 5.734847,14.083085 5.502393,14.876744 c -0.2324528,0.793659 -0.3874257,1.73418 -0.2830973,2.607996 0.1043337,0.873817 0.4677113,1.680739 1.159884,2.311216 0.6921715,0.630476 1.7128528,1.084705 2.7522162,1.268964 1.0393631,0.184259 2.0974471,0.09876 3.0780401,-0.05357 0.980592,-0.152323 1.883704,-0.371422 2.58104,-0.606564 0.697334,-0.235142 1.188972,-0.486303 1.55764,-0.737437 0.368668,-0.251132 0.614488,-0.502295 0.793493,-1.012507 0.179004,-0.51021 0.291224,-1.279728 0.224547,-1.915602 -0.06668,-0.635873 -0.312493,-1.138198 -0.686504,-1.640571 -0.374012,-0.502375 -0.876336,-1.004698 -1.311839,-1.349454 -0.435505,-0.344757 -0.804235,-0.531794 -1.61919,-0.937938 z"
         id="path1071" />
      <path
         style="display:inline;fill:#5599ff;stroke:none;stroke-width:0.351159px;stroke-linecap:butt;stroke-linejoin:miter;stroke-opacity:1"
         d="m 13.355507,19.119738 c -0.373945,0.242976 -1.074008,0.467423 -1.664427,0.526286 -0.590418,0.05886 -1.071366,-0.04802 -1.557707,-0.363179 C 9.6470309,18.967681 9.1553949,18.443983 8.8613228,17.658417 8.5672506,16.872852 8.4710621,15.825453 8.5431547,14.99436 c 0.072095,-0.831091 0.3125658,-1.445635 0.7963193,-1.918709 0.4837523,-0.473073 1.210522,-0.804393 2.020276,-0.774868 0.809755,0.02952 1.702176,0.419625 2.423601,0.831176 0.721424,0.411551 1.271843,0.844404 1.699316,1.2693 0.427473,0.424896 0.73207,0.841716 0.625161,1.119374 -0.106908,0.277658 -0.625263,0.4166 -1.039561,0.683858 -0.414299,0.267257 -0.724247,0.662704 -0.913967,1.042243 -0.189721,0.37954 -0.259191,0.742924 -0.317972,1.055549 -0.05878,0.312627 -0.106882,0.574477 -0.480821,0.817455 z"
         id="path1075" />
      <ellipse
         style="display:inline;fill:#0066ff;fill-opacity:1;stroke:none;stroke-width:0.131537;stroke-linecap:round;stroke-linejoin:round;stroke-miterlimit:4;stroke-dasharray:none;stroke-opacity:1"
         id="path1079"
         cx="11.148846"
         cy="14.74527"
         rx="0.54459435"
         ry="0.79543513" />
      <ellipse
         style="display:inline;fill:#aaccff;fill-opacity:1;stroke:none;stroke-width:0.0877898;stroke-linecap:round;stroke-linejoin:round;stroke-miterlimit:4;stroke-dasharray:none;stroke-opacity:1"
         id="path1081"
         cx="11.073268"
         cy="14.97354"
         rx="0.42510885"
         ry="0.51580077" />
      <ellipse
         style="display:inline;fill:#00112b;fill-opacity:1;stroke:none;stroke-width:0.0877898;stroke-linecap:round;stroke-linejoin:round;stroke-miterlimit:4;stroke-dasharray:none;stroke-opacity:1"
         id="path1083"
         cx="11.044928"
         cy="15.069897"
         rx="0.22672565"
         ry="0.26073465" />
      <path
         style="display:inline;fill:#aaccff;stroke:none;stroke-width:0.0877898;stroke-linecap:butt;stroke-linejoin:miter;stroke-miterlimit:4;stroke-dasharray:none;stroke-opacity:1"
         d="m 13.492365,14.545333 c 0.0044,0.06616 -0.342603,0.137923 -0.328752,-0.510133 0.03399,-0.345754 -0.338395,0.456158 -0.129179,0.722949 0.209083,0.266616 0.25949,-0.02977 0.459923,-0.09658 z"
         id="path1085"
         sodipodi:nodetypes="ccscc" />
      <path
         id="path1095"
         style="display:inline;fill:#0044aa;stroke:none;stroke-width:1.32723px;stroke-linecap:butt;stroke-linejoin:miter;stroke-opacity:1"
         d="m 26.087891,77.0625 c -0.516501,-0.0373 -1.175411,0.213354 -2.027344,0.892578 -1.703867,1.358459 -4.177611,4.42967 -5.955078,6.644531 -0.373207,0.465045 -0.608028,0.782093 -0.923828,1.181641 a 51.637565,51.637565 0 0 0 3.996093,7.076172 c 0.981107,-1.911792 2.017196,-3.789208 3.013672,-5.373047 1.405287,-2.233623 2.726634,-3.890242 3.285156,-5.490234 0.558523,-1.599997 0.35411,-3.144098 -0.21289,-4.09375 -0.283489,-0.474825 -0.65928,-0.800587 -1.175781,-0.837891 z"
         transform="scale(0.26458)" />
      <ellipse
         style="display:inline;fill:#00112b;fill-opacity:1;stroke:none;stroke-width:0.0779383;stroke-linecap:round;stroke-linejoin:round;stroke-miterlimit:4;stroke-dasharray:none;stroke-opacity:1"
         id="path1209"
         cx="16.422066"
         cy="18.234049"
         ry="2.2336571"
         rx="1.895179" />
      <path
         style="display:inline;fill:#003380;stroke:none;stroke-width:0.351159px;stroke-linecap:butt;stroke-linejoin:miter;stroke-opacity:1"
         d="m 18.38167,21.117173 c -0.07616,-0.359392 -0.228548,-1.078585 -0.370283,-1.380907 -0.141737,-0.302324 -0.27273,-0.187369 -0.181762,0.306135 0.09097,0.493506 0.403771,1.365075 0.545414,1.667167 0.141645,0.302093 0.112231,0.03473 0.09751,-0.09913 -0.01473,-0.133871 -0.01472,-0.133871 -0.09088,-0.493264 z"
         id="path1219" />
      <path
         style="display:inline;fill:#0055d4;stroke:none;stroke-width:0.367289px;stroke-linecap:butt;stroke-linejoin:miter;stroke-opacity:1"
         d="m 14.395516,18.212783 c 0.213705,0.195346 0.64073,0.585687 1.116047,0.839552 0.475317,0.253865 0.998851,0.371501 1.431694,0.424918 0.432845,0.05342 0.775043,0.04272 0.938637,0.160532 0.163594,0.117806 0.148967,0.363775 -0.03808,0.533349 -0.187047,0.169573 -0.546793,0.263149 -0.959165,0.336688 -0.412372,0.07354 -0.87741,0.127016 -1.213726,0.08039 -0.336318,-0.04662 -0.543976,-0.193663 -0.782417,-0.459628 -0.238441,-0.265965 -0.50752,-0.650952 -0.630519,-1.022627 -0.122994,-0.371677 -0.0996,-0.729931 -0.08789,-0.909222 0.01168,-0.179292 0.01168,-0.179296 0.225417,0.01605 z"
         id="path1215" />
      <path
         id="path1211"
         style="display:inline;fill:#003380;stroke:none;stroke-width:0.351159px;stroke-linecap:butt;stroke-linejoin:miter;stroke-opacity:1"
         d="m 16.326445,15.813721 c -0.214716,0.0077 -0.438604,0.04547 -0.657738,0.118654 -0.584354,0.195136 -1.13273,0.646714 -1.437557,1.202995 -0.30482,0.556279 -0.366387,1.216581 -0.397112,1.546608 -0.0035,0.292831 0.03122,0.48196 0.141861,0.658774 -0.0068,0.550995 0.215369,1.52968 0.375961,2.099059 0.160595,0.569379 0.315858,0.646696 0.322353,0.09603 0.0065,-0.55068 -0.135567,-1.729167 -0.206443,-2.318885 -0.02844,-0.236593 -0.04232,-0.328659 -0.05829,-0.4122 0.177588,-0.196405 0.319238,-0.583872 0.489013,-0.960887 0.169779,-0.377012 0.367621,-0.743453 0.715349,-0.982834 0.347733,-0.239382 0.844604,-0.351612 1.253752,-0.338127 0.409141,0.01348 0.730143,0.15254 0.819597,0.0631 0.08946,-0.08944 -0.05188,-0.407362 -0.432776,-0.597382 -0.238053,-0.118761 -0.570106,-0.187819 -0.927966,-0.174895 z"
         sodipodi:nodetypes="sssccssscssssss" />
    </g>
    <g
       id="g1801"
       transform="matrix(0.38006827,0,0,0.38006827,17.465005,8.806332)"
       style="display:inline">
      <path
         style="display:inline;fill:#0044aa;fill-opacity:1;stroke:none;stroke-width:0.26458px;stroke-linecap:butt;stroke-linejoin:miter;stroke-opacity:1"
         d="m 13.656973,24.730738 c -0.320142,-0.07683 -0.96074,-0.230579 -1.45056,-0.206437 -0.48982,0.02414 -0.828617,0.226281 -1.415168,0.747333 -0.58655,0.521051 -1.4207348,1.360928 -2.0755638,1.992981 -0.654829,0.632052 -1.1302841,1.056262 -1.441903,1.211548 -0.3116188,0.155285 -0.4596655,0.0414 -0.5792698,-0.06818 C 6.574904,28.298395 6.4837981,28.193054 6.3968695,27.938247 6.3099409,27.683439 6.227376,27.279159 6.2543721,26.769467 6.2813682,26.259776 6.4180277,25.644814 6.597393,25.116627 6.7767583,24.58844 6.9988276,24.147148 6.9121545,23.757162 6.8254814,23.367175 6.4297419,23.028377 6.0595819,22.619843 5.689422,22.211308 5.3449305,21.733005 5.0957889,21.358616 4.8466473,20.984226 4.6929069,20.713758 4.6216332,20.477414 4.5503595,20.24107 4.5617483,20.03893 4.8479954,19.879346 c 0.286247,-0.159584 0.8471143,-0.276312 1.3624841,-0.318989 0.5153698,-0.04268 0.9851321,-0.01136 1.6129377,0.08689 0.6278056,0.09825 1.4135883,0.263377 2.1595363,0.429938 0.7459475,0.166562 1.4520145,0.334538 1.8733915,0.448456 0.421377,0.113918 0.558032,0.173705 0.92523,0.09816 0.367199,-0.07555 0.965077,-0.286228 1.202723,0.388697 0.237646,0.674926 0.115223,2.235106 0.05402,3.01509 -0.0612,0.779984 -0.0612,0.779988 -0.381345,0.703154 z"
         id="path1763"
         inkscape:path-effect="#path-effect1803"
         inkscape:original-d="m 13.977116,24.807572 c -0.640331,-0.153479 -1.280929,-0.307223 -1.921791,-0.461231 -0.338546,0.202412 -0.677343,0.404553 -1.016411,0.606432 C 10.204961,25.792949 9.3707758,26.632826 8.53631,27.472455 8.0611011,27.896946 7.5856463,28.321156 7.1099177,28.745108 6.9621296,28.631487 6.8140834,28.517605 6.6657691,28.403457 6.5749245,28.298377 6.4838188,28.193036 6.3924465,28.087429 6.3101431,27.683398 6.227578,27.279118 6.144747,26.874565 6.2816764,26.259844 6.4183357,25.644882 6.5547334,25.029644 6.7770758,24.5886 6.9991447,24.147308 7.2209535,23.705744 6.8254626,23.367197 6.4297232,23.028399 6.0337112,22.68933 5.6894705,22.211273 5.3449791,21.73297 5.0002163,21.254393 4.8467339,20.984177 4.6929928,20.713709 4.5389843,20.442969 c 0.011654,-0.201883 0.023043,-0.404023 0.034167,-0.606431 0.5611547,-0.11647 1.1220222,-0.233198 1.6826365,-0.350194 0.4700452,0.03158 0.9398073,0.0629 1.4093138,0.09395 0.786079,0.1654 1.5718618,0.330528 2.3573964,0.495395 0.706358,0.168247 1.412425,0.336222 2.11824,0.503937 0.136927,0.06006 0.273584,0.119843 0.40998,0.179367 0.598168,-0.210425 1.196046,-0.421106 1.793673,-0.632056 -0.122164,1.560505 -0.244586,3.120685 -0.367276,4.680631 z" />
      <path
         style="display:inline;fill:#0088aa;stroke:none;stroke-width:0.26458px;stroke-linecap:butt;stroke-linejoin:miter;stroke-opacity:1"
         d="m 12.938938,20.579908 c 0.463126,-0.12887 1.389199,-0.38656 2.518601,-0.773102 1.129402,-0.386543 2.462114,-0.901913 3.682117,-1.403205 1.220003,-0.501292 2.327242,-0.988478 3.058102,-1.242122 0.730859,-0.253644 1.085177,-0.273777 1.729442,-0.171057 0.644266,0.102719 1.578371,0.328194 2.250759,0.65242 0.672388,0.324227 1.083074,0.746992 1.819936,1.361004 0.736861,0.614013 1.799789,1.419261 2.228443,2.381584 0.428655,0.962324 0.223315,2.081619 -0.01627,2.913037 -0.239584,0.831417 -0.51337,1.374961 -0.875715,1.83593 -0.362344,0.460968 -0.813284,0.839436 -1.217845,1.050823 -0.404561,0.211387 -0.762901,0.255676 -1.296494,0.525445 -0.533593,0.269768 -1.242229,0.765006 -1.767641,1.085098 -0.525413,0.320092 -0.867649,0.46504 -2.240582,0.112805 -1.372933,-0.352235 -3.776647,-1.20179 -5.262419,-1.892253 -1.485772,-0.690462 -2.053485,-1.221937 -2.653403,-1.620614 -0.599918,-0.398678 -1.232051,-0.664415 -1.672971,-0.797354 -0.440921,-0.132938 -0.690554,-0.132938 -0.7833,-0.758931 -0.09275,-0.625993 -0.02832,-1.878181 0.0039,-2.504412 0.03222,-0.626231 0.03222,-0.626226 0.495346,-0.755096 z"
         id="path1765"
         inkscape:path-effect="#path-effect1805"
         inkscape:original-d="m 12.475812,20.708778 c 0.926339,-0.257426 1.852412,-0.515116 2.77822,-0.77307 1.333032,-0.515126 2.665744,-1.030496 3.998219,-1.54614 1.107548,-0.48694 2.214787,-0.974126 3.321784,-1.461585 0.354598,-0.01987 0.708916,-0.04 1.062978,-0.0604 0.934407,0.225748 1.868512,0.451222 2.802371,0.676437 0.410967,0.423045 0.821653,0.84581 1.232083,1.268318 1.063258,0.805562 2.126186,1.61081 3.188916,2.415843 -0.205088,1.119628 -0.410427,2.238924 -0.616044,3.358023 -0.273537,0.54384 -0.547323,1.087384 -0.821388,1.630693 -0.450702,0.378753 -0.901642,0.757221 -1.352874,1.135447 -0.358092,0.04456 -0.716432,0.08885 -1.075046,0.13287 -0.708398,0.495522 -1.417033,0.99076 -2.125947,1.485741 -0.341987,0.14522 -0.684223,0.290168 -1.026733,0.434854 -2.403546,-0.849324 -4.807259,-1.69888 -7.211287,-2.548716 -0.567471,-0.531231 -1.135185,-1.062706 -1.703174,-1.594456 -0.631893,-0.265483 -1.264026,-0.53122 -1.896435,-0.797228 -0.249377,2.65e-4 -0.49901,2.65e-4 -0.748913,0 0.06469,-1.251972 0.12911,-2.50416 0.193268,-3.756636 z"
         sodipodi:nodetypes="scccccccccccccccccss" />
      <path
         style="display:inline;fill:#00ccff;fill-opacity:1;stroke:none;stroke-width:0.26458px;stroke-linecap:butt;stroke-linejoin:miter;stroke-opacity:1"
         d="m 17.1716,23.524931 c 0.36731,-0.23206 1.101861,-0.696137 1.976055,-0.740182 0.874193,-0.04405 1.887739,0.331763 2.535366,0.847195 0.647627,0.515432 0.929485,1.170252 1.204272,1.682724 0.274787,0.512471 0.542408,0.882586 0.744468,1.511803 0.202061,0.629218 0.338721,1.517495 0.160806,2.078199 -0.177915,0.560705 -0.670455,0.794163 -1.490341,0.836914 -0.819886,0.04275 -1.967244,-0.105296 -2.764424,-0.281764 -0.797179,-0.176468 -1.244165,-0.381455 -1.634255,-0.668949 -0.39009,-0.287495 -0.723193,-0.657611 -0.999415,-1.081813 -0.276222,-0.424201 -0.495444,-0.902504 -0.602285,-1.376579 -0.106842,-0.474076 -0.101149,-0.943837 0.0013,-1.37241 0.102473,-0.428573 0.301765,-0.81577 0.40144,-1.009423 0.09967,-0.193654 0.09968,-0.193654 0.466988,-0.425715 z"
         id="path1767"
         inkscape:path-effect="#path-effect1807"
         inkscape:original-d="m 16.804289,23.756992 c 0.734816,-0.463813 1.469367,-0.92789 2.203654,-1.392231 1.013851,0.376089 2.027397,0.751898 3.040699,1.12745 0.282133,0.65511 0.563992,1.30993 0.84559,1.964499 0.267897,0.370394 0.535517,0.740509 0.802879,1.110368 0.136929,0.888577 0.273589,1.776854 0.409987,2.664884 -0.492295,0.233732 -0.984835,0.467189 -1.477649,0.700387 -1.147138,-0.147788 -2.294496,-0.295834 -3.442141,-0.444148 -0.44674,-0.20473 -0.893725,-0.409717 -1.340985,-0.614973 -0.332851,-0.369866 -0.665954,-0.739981 -0.999328,-1.110368 -0.218966,-0.478058 -0.438189,-0.95636 -0.65768,-1.434937 0.006,-0.469516 0.01166,-0.939278 0.01708,-1.409314 0.199566,-0.38695 0.398859,-0.774147 0.597892,-1.161617 z" />
      <path
         style="display:inline;fill:#2a7fff;stroke:none;stroke-width:0.26458px;stroke-linecap:butt;stroke-linejoin:miter;stroke-opacity:1"
         d="m 29.727263,20.374745 c -0.614027,-0.306009 -1.564256,-0.777097 -2.283048,-0.938257 -0.718793,-0.161159 -1.205978,-0.01219 -1.715353,0.193163 -0.509376,0.205349 -1.040851,0.46706 -1.423443,0.841603 -0.382591,0.374543 -0.616117,0.861728 -0.791259,1.459708 -0.175141,0.597981 -0.291905,1.306614 -0.213299,1.964989 0.07861,0.658375 0.352396,1.266349 0.873912,1.74138 0.521515,0.475031 1.290545,0.817269 2.073651,0.956098 0.783106,0.13883 1.580317,0.07441 2.319142,-0.04036 0.738825,-0.114767 1.419273,-0.279847 1.944679,-0.457014 0.525405,-0.177167 0.895828,-0.366404 1.1736,-0.55562 0.277772,-0.189215 0.462985,-0.378453 0.597856,-0.762871 0.13487,-0.384417 0.219422,-0.964208 0.169184,-1.443306 -0.05024,-0.479097 -0.235447,-0.857573 -0.517245,-1.236085 -0.281798,-0.378513 -0.660273,-0.756987 -0.988402,-1.016743 -0.32813,-0.259756 -0.605949,-0.400679 -1.219975,-0.706687 z"
         id="path1769"
         inkscape:path-effect="#path-effect1809"
         inkscape:original-d="m 30.06315,20.539669 c -0.949967,-0.470825 -1.900196,-0.941914 -2.850692,-1.413269 -0.486939,0.149245 -0.974124,0.298219 -1.461583,0.446931 -0.531232,0.261987 -1.062708,0.523697 -1.594458,0.78515 -0.233271,0.487469 -0.466797,0.974654 -0.700593,1.461585 -0.116505,0.708926 -0.233269,1.417559 -0.350301,2.125942 0.274066,0.608263 0.547855,1.216238 0.821386,1.823961 0.769325,0.342515 1.538355,0.684753 2.307135,1.026733 0.797509,-0.06416 1.59472,-0.12858 2.391685,-0.193267 0.680737,-0.164822 1.361185,-0.329901 2.041383,-0.495248 0.3707,-0.18898 0.741123,-0.378218 1.111289,-0.567723 0.185484,-0.18898 0.370697,-0.378218 0.555647,-0.567723 0.08482,-0.579549 0.169373,-1.15934 0.253661,-1.739406 -0.184953,-0.378225 -0.370162,-0.756701 -0.55564,-1.135448 -0.378227,-0.378225 -0.756702,-0.756699 -1.13545,-1.135446 -0.277563,-0.140662 -0.555383,-0.281583 -0.833469,-0.422772 z" />
      <path
         style="display:inline;fill:#5599ff;stroke:none;stroke-width:0.26458px;stroke-linecap:butt;stroke-linejoin:miter;stroke-opacity:1"
         d="m 29.431071,25.127836 c -0.281748,0.18307 -0.809209,0.352179 -1.254059,0.396529 -0.444849,0.04435 -0.807218,-0.03618 -1.173651,-0.273636 -0.366433,-0.23746 -0.736855,-0.632039 -0.958423,-1.223922 -0.221568,-0.591882 -0.294041,-1.381042 -0.239723,-2.007227 0.05432,-0.626184 0.235502,-1.089211 0.599985,-1.445647 0.364482,-0.356436 0.912065,-0.606068 1.522172,-0.583823 0.610108,0.02224 1.282501,0.316166 1.826057,0.626248 0.543555,0.310082 0.958267,0.636214 1.280346,0.956351 0.322078,0.320137 0.551576,0.634189 0.471026,0.84339 -0.08055,0.209201 -0.471103,0.313886 -0.783255,0.515251 -0.312153,0.201364 -0.545682,0.499313 -0.688626,0.785276 -0.142945,0.285963 -0.195287,0.559754 -0.239576,0.795301 -0.04429,0.235548 -0.08053,0.432838 -0.362273,0.615909 z"
         id="path1771"
         inkscape:path-effect="#path-effect1811"
         inkscape:original-d="m 29.676621,25.14185 c -0.527196,0.169374 -1.054657,0.338482 -1.582382,0.507326 -0.362119,-0.08027 -0.724488,-0.160792 -1.08713,-0.241584 -0.370172,-0.394331 -0.740595,-0.78891 -1.111289,-1.183762 -0.07221,-0.788927 -0.144685,-1.578087 -0.217424,-2.367527 0.181457,-0.462782 0.36264,-0.925809 0.543564,-1.38911 0.547868,-0.249377 1.09545,-0.49901 1.642778,-0.748911 0.672687,0.294198 1.34508,0.58812 2.017225,0.881783 0.414994,0.32641 0.829706,0.652542 1.244163,0.978417 0.229774,0.31433 0.459271,0.628383 0.688512,0.942178 -0.390304,0.104953 -0.780856,0.209637 -1.17168,0.31406 -0.233272,0.298224 -0.466801,0.596172 -0.7006,0.893862 -0.05208,0.274065 -0.104422,0.547856 -0.157028,0.821386 -0.03597,0.197563 -0.07221,0.394852 -0.108709,0.591882 z" />
      <ellipse
         style="display:inline;fill:#0066ff;fill-opacity:1;stroke:none;stroke-width:0.0991059;stroke-linecap:round;stroke-linejoin:round;stroke-miterlimit:4;stroke-dasharray:none;stroke-opacity:1"
         id="ellipse1773"
         cx="27.768467"
         cy="21.831903"
         rx="0.41032335"
         ry="0.5993188" />
      <ellipse
         style="display:inline;fill:#aaccff;fill-opacity:1;stroke:none;stroke-width:0.066145;stroke-linecap:round;stroke-linejoin:round;stroke-miterlimit:4;stroke-dasharray:none;stroke-opacity:1"
         id="ellipse1775"
         cx="27.711523"
         cy="22.003893"
         rx="0.3202973"
         ry="0.38862893" />
      <ellipse
         style="display:inline;fill:#00112b;fill-opacity:1;stroke:none;stroke-width:0.066145;stroke-linecap:round;stroke-linejoin:round;stroke-miterlimit:4;stroke-dasharray:none;stroke-opacity:1"
         id="ellipse1777"
         cx="27.69017"
         cy="22.076492"
         rx="0.17082593"
         ry="0.19644992" />
      <path
         style="display:inline;fill:#aaccff;stroke:none;stroke-width:0.066145;stroke-linecap:butt;stroke-linejoin:miter;stroke-miterlimit:4;stroke-dasharray:none;stroke-opacity:1"
         d="m 29.534186,21.681261 c 0.0033,0.04985 -0.258133,0.103918 -0.247697,-0.384358 0.02561,-0.260508 -0.254963,0.343691 -0.09733,0.544704 0.157533,0.200881 0.195512,-0.02243 0.346528,-0.07277 z"
         id="path1779"
         sodipodi:nodetypes="ccscc" />
      <path
         style="display:inline;fill:#003380;stroke:none;stroke-width:0.26458px;stroke-linecap:butt;stroke-linejoin:miter;stroke-opacity:1"
         d="m 14.573883,25.60361 c -0.291306,0.191095 -0.62152,0.465655 -0.83119,0.742164 -0.20967,0.27651 -0.298713,0.554775 -0.272624,0.818281 0.02609,0.263506 0.167075,0.512089 0.276503,0.732854 0.109429,0.220765 0.187342,0.413695 0.343216,0.489576 0.155874,0.07588 0.389615,0.03507 0.599141,-0.07808 0.209525,-0.113146 0.395035,-0.298656 0.612085,-0.521271 0.21705,-0.222615 0.465633,-0.482328 0.656693,-0.721608 0.191059,-0.239279 0.324625,-0.45818 0.21717,-0.766034 -0.107455,-0.307853 -0.456211,-0.704842 -0.756803,-0.849709 -0.300592,-0.144867 -0.552884,-0.03727 -0.844191,0.153823 z"
         id="path1781"
         inkscape:path-effect="#path-effect1813"
         inkscape:original-d="m 14.612764,25.520167 c -0.329949,0.274824 -0.660163,0.549384 -0.990642,0.82368 -0.08878,0.278539 -0.177826,0.556803 -0.267135,0.834808 0.141257,0.248857 0.282244,0.49744 0.422969,0.745763 0.07818,0.193201 0.156093,0.386131 0.233743,0.578799 0.234015,-0.04055 0.467757,-0.08136 0.701238,-0.122437 0.185782,-0.185252 0.371292,-0.370761 0.556539,-0.556539 0.248858,-0.259459 0.497441,-0.519173 0.745765,-0.779155 0.133835,-0.218646 0.267401,-0.437547 0.400705,-0.656717 -0.348506,-0.396742 -0.697261,-0.793732 -1.04629,-1.190994 -0.252038,0.107864 -0.50433,0.215459 -0.756892,0.322792 z" />
      <path
         style="display:inline;fill:#003380;stroke:none;stroke-width:0.26458px;stroke-linecap:butt;stroke-linejoin:miter;stroke-opacity:1"
         d="m 20.556553,29.320044 c -0.385839,0.107472 -0.771668,0.374371 -1.079605,0.589448 -0.307936,0.215077 -0.537968,0.378325 -0.769906,0.626961 -0.231938,0.248636 -0.465679,0.582552 -0.61781,0.838604 -0.15213,0.256052 -0.222625,0.434143 -0.287554,0.582538 -0.06493,0.148395 -0.124291,0.26712 -0.120519,0.473144 0.0038,0.206024 0.07056,0.499129 0.257902,0.511949 0.187345,0.01282 0.49529,-0.254313 0.851461,-0.61976 0.356171,-0.365447 0.760582,-0.829221 1.255771,-1.346732 0.495189,-0.517511 1.081088,-1.08869 1.181394,-1.400218 0.100306,-0.311528 -0.285294,-0.363405 -0.671134,-0.255934 z"
         id="path1783"
         inkscape:path-effect="#path-effect1815"
         inkscape:original-d="m 20.556487,29.160655 c -0.385564,0.267163 -0.771393,0.534062 -1.157485,0.800696 -0.229777,0.163519 -0.459809,0.326767 -0.69011,0.489754 -0.233486,0.334195 -0.467228,0.668111 -0.701238,1.00177 -0.07023,0.178362 -0.140728,0.356451 -0.211488,0.534278 -0.0591,0.118996 -0.118462,0.237721 -0.17809,0.356185 0.06705,0.293381 0.133833,0.586486 0.200353,0.879332 0.308222,-0.26688 0.616167,-0.534013 0.923853,-0.801417 0.404692,-0.463527 0.809104,-0.9273 1.213259,-1.391348 0.586203,-0.570951 1.172101,-1.142131 1.757777,-1.713615 -0.385355,-0.05162 -0.770955,-0.103493 -1.156831,-0.155635 z"
         sodipodi:nodetypes="ccccccccccc" />
      <path
         style="display:inline;fill:#0044aa;stroke:none;stroke-width:0.26458px;stroke-linecap:butt;stroke-linejoin:miter;stroke-opacity:1"
         d="m 24.164974,26.262296 c -0.339661,0.270805 -0.833124,0.882997 -1.187457,1.324523 -0.354332,0.441525 -0.569523,0.712369 -0.734643,1.02781 -0.16512,0.31544 -0.280135,0.675328 -0.31349,1.174424 -0.03336,0.499097 0.01488,1.137248 0.08363,1.502703 0.06876,0.365454 0.157803,0.45821 0.268963,0.406159 0.11116,-0.05205 0.244729,-0.248692 0.420961,-0.601137 0.176232,-0.352445 0.395132,-0.860741 0.652999,-1.395039 0.257867,-0.534298 0.554681,-1.094536 0.834822,-1.539803 0.28014,-0.445267 0.543565,-0.775475 0.654905,-1.094429 0.11134,-0.318955 0.07053,-0.626902 -0.0425,-0.816212 -0.113025,-0.18931 -0.298534,-0.259803 -0.638195,0.011 z"
         id="path1785"
         inkscape:path-effect="#path-effect1817"
         inkscape:original-d="m 24.318803,25.920876 c -0.4932,0.612458 -0.986665,1.22465 -1.480393,1.83658 -0.214935,0.271118 -0.430125,0.541963 -0.645584,0.812548 -0.114756,0.360166 -0.22977,0.720054 -0.345052,1.079685 0.0485,0.638442 0.09673,1.276594 0.144698,1.914495 0.08931,0.09302 0.178355,0.185776 0.267136,0.278269 0.133837,-0.196383 0.267406,-0.393024 0.400712,-0.589932 0.219173,-0.508051 0.438072,-1.016347 0.656713,-1.524917 0.297091,-0.559996 0.593905,-1.120234 0.890461,-1.680748 0.2637,-0.329955 0.527126,-0.660162 0.79029,-0.99064 -0.04055,-0.307694 -0.08137,-0.61564 -0.122442,-0.923856 -0.185253,-0.07023 -0.370761,-0.140725 -0.556539,-0.211484 z" />
      <path
         style="display:inline;fill:#003380;stroke:none;stroke-width:0.066145;stroke-linecap:butt;stroke-linejoin:miter;stroke-miterlimit:4;stroke-dasharray:none;stroke-opacity:1"
         d="m 22.226119,29.245726 c 0.06165,0.198639 0.14429,0.529205 0.208552,0.840748 0.06426,0.311544 0.110173,0.604064 0.07798,0.870923 -0.03219,0.266858 -0.142378,0.50822 -0.241921,0.580444 -0.09954,0.07222 -0.188741,-0.02484 -0.239368,-0.327215 -0.05063,-0.302371 -0.06243,-0.810019 -0.04742,-1.227091 0.01502,-0.417072 0.0569,-0.743504 0.09833,-0.873328 0.04143,-0.129824 0.08219,-0.06312 0.143843,0.135519 z"
         id="path1787"
         inkscape:path-effect="#path-effect1819"
         inkscape:original-d="m 22.205048,29.113486 c 0.08291,0.330831 0.165548,0.661398 0.247925,0.991701 0.04618,0.292796 0.09209,0.585317 0.137736,0.877578 -0.109927,0.241636 -0.220114,0.482998 -0.330568,0.7241 -0.08894,-0.09681 -0.178137,-0.193878 -0.267602,-0.291213 -0.01154,-0.507403 -0.02335,-1.015051 -0.03542,-1.522972 0.04214,-0.32618 0.08402,-0.652611 0.125633,-0.979313 0.04103,0.06697 0.08179,0.133676 0.122296,0.200119 z"
         sodipodi:nodetypes="scccccss" />
      <path
         style="display:inline;fill:#002255;stroke:none;stroke-width:0.066145;stroke-linecap:butt;stroke-linejoin:miter;stroke-miterlimit:4;stroke-dasharray:none;stroke-opacity:1"
         d="m 23.716212,29.423196 c 0,0.0067 0,0.01981 -0.0092,0.06962 -0.0092,0.04981 -0.02757,0.13639 0.01059,0.261725 0.03816,0.125334 0.132601,0.2893 0.17514,0.566717 0.04254,0.277417 0.03336,0.668319 -0.0034,0.983765 -0.03675,0.315447 -0.101027,0.555495 -0.175621,0.666936 -0.07459,0.111441 -0.15986,0.09439 -0.270045,0.05246 -0.110186,-0.04193 -0.245295,-0.108829 -0.36208,-0.198625 -0.116784,-0.08979 -0.215166,-0.202606 -0.293244,-0.305567 -0.07808,-0.102961 -0.135795,-0.196095 -0.140504,-0.343077 -0.0047,-0.146981 0.04383,-0.347679 0.166475,-0.626484 0.122651,-0.278804 0.319413,-0.6356 0.482174,-0.837686 0.16276,-0.202087 0.29131,-0.249309 0.355514,-0.272894 0.0642,-0.02358 0.0642,-0.02358 0.0642,-0.01689 z"
         id="path1789"
         inkscape:path-effect="#path-effect1821"
         inkscape:original-d="m 23.716212,29.416506 c 2.64e-4,0.01338 2.64e-4,0.0265 0,0.03935 -0.0181,0.08684 -0.03646,0.173419 -0.05509,0.259731 0.09472,0.16424 0.189161,0.328209 0.283345,0.491916 -0.0089,0.391182 -0.0181,0.782083 -0.02755,1.172728 -0.06402,0.240324 -0.128289,0.480374 -0.192831,0.720164 -0.085,-0.01679 -0.170266,-0.03384 -0.255797,-0.05116 -0.134851,-0.06664 -0.269961,-0.133537 -0.405338,-0.200702 -0.09812,-0.11255 -0.196502,-0.22536 -0.295149,-0.338438 -0.05746,-0.09287 -0.115173,-0.186007 -0.173155,-0.279408 0.0488,-0.200442 0.09734,-0.401139 0.145607,-0.602105 0.197034,-0.356546 0.393797,-0.713341 0.590299,-1.070409 0.128821,-0.04696 0.257372,-0.09418 0.385662,-0.141671 z" />
      <path
         style="display:inline;fill:#0044aa;stroke:none;stroke-width:0.26458px;stroke-linecap:butt;stroke-linejoin:miter;stroke-opacity:1"
         d="m 14.457043,19.939919 c -0.0138,0.0018 -0.04163,0.0055 -0.105658,0.02131 -0.06403,0.01576 -0.164198,0.04358 -0.313468,0.0047 -0.149271,-0.03885 -0.347767,-0.144591 -0.401737,-0.256892 -0.05397,-0.112302 0.03693,-0.231027 0.215992,-0.385042 0.179063,-0.154016 0.446196,-0.343235 0.691128,-0.475886 0.244932,-0.132651 0.467542,-0.20871 0.758838,-0.26899 0.291296,-0.06028 0.651184,-0.104802 1.201209,-0.237457 0.550025,-0.132656 1.290207,-0.353411 1.851383,-0.526868 0.561175,-0.173457 0.943324,-0.299604 1.245697,-0.409986 0.302374,-0.110383 0.524984,-0.204992 0.680724,-0.374637 0.155741,-0.169645 0.244785,-0.414518 0.395069,-0.66317 0.150284,-0.248651 0.361766,-0.500944 0.516687,-0.671636 0.154922,-0.170691 0.253242,-0.259736 0.272741,-0.467356 0.0195,-0.20762 -0.03987,-0.534117 -0.02119,-0.659374 0.01867,-0.125256 0.115136,-0.0492 0.207854,-0.01872 0.09272,0.03048 0.181764,0.01564 0.279165,0.07702 0.0974,0.06139 0.203142,0.198663 0.348736,0.45747 0.145594,0.258807 0.331103,0.639101 0.544397,1.033219 0.213294,0.394118 0.454327,0.802034 0.432131,0.959618 -0.0222,0.157584 -0.307754,0.06503 -0.657461,0.08082 -0.349707,0.01579 -0.763394,0.140082 -1.281025,0.381254 -0.517631,0.241172 -1.139086,0.599205 -1.830121,0.973016 -0.691035,0.37381 -1.451624,0.76338 -2.194575,1.062987 -0.742951,0.299607 -1.468292,0.509233 -1.926455,0.605737 -0.458163,0.0965 -0.649237,0.07981 -0.754166,0.02058 -0.104929,-0.05923 -0.123479,-0.161257 -0.132782,-0.212423 -0.0093,-0.05117 -0.0093,-0.05117 -0.02311,-0.04933 z"
         id="path1791"
         inkscape:path-effect="#path-effect1823"
         inkscape:original-d="m 14.470844,19.938079 c -0.02756,0.004 -0.05539,0.0077 -0.08348,0.01113 -0.09992,0.02809 -0.200089,0.05592 -0.300531,0.08348 -0.198238,-0.10548 -0.396734,-0.21122 -0.595497,-0.317227 0.09117,-0.118466 0.182067,-0.237192 0.272703,-0.356185 0.267409,-0.188963 0.534542,-0.378183 0.801417,-0.56767 0.222884,-0.0758 0.445495,-0.151856 0.667847,-0.228181 0.360167,-0.04426 0.720055,-0.08878 1.079686,-0.13357 0.740477,-0.2205 1.480659,-0.441256 2.220592,-0.662281 0.382429,-0.125887 0.764578,-0.252033 1.14647,-0.378447 0.222885,-0.09435 0.445496,-0.188959 0.667847,-0.283835 0.08931,-0.244618 0.178357,-0.48949 0.267138,-0.734632 0.211754,-0.252038 0.423235,-0.504331 0.634456,-0.756893 0.09859,-0.08878 0.196908,-0.177828 0.294965,-0.267139 -0.0591,-0.326244 -0.118464,-0.652741 -0.178093,-0.979508 0.09673,0.07633 0.193199,0.152385 0.289401,0.228181 0.08931,-0.01458 0.178356,-0.02942 0.267138,-0.04452 0.10601,0.137547 0.21175,0.274824 0.317228,0.411839 0.185782,0.380574 0.371291,0.760868 0.556539,1.140906 0.241311,0.408204 0.482343,0.816121 0.723124,1.223795 -0.285304,-0.0923 -0.570863,-0.184855 -0.856691,-0.277679 -0.413439,0.12456 -0.827126,0.248852 -1.241085,0.372881 -0.621217,0.358313 -1.242673,0.716345 -1.864407,1.074121 -0.760353,0.38985 -1.520942,0.77942 -2.28181,1.168732 -0.725106,0.209899 -1.450447,0.419525 -2.176068,0.62889 -0.190817,-0.01643 -0.381891,-0.03313 -0.573233,-0.05009 -0.01829,-0.101769 -0.03684,-0.203799 -0.05565,-0.306095 z"
         sodipodi:nodetypes="sccccccccccccccccccccccccccs" />
      <ellipse
         style="display:inline;fill:#00112b;fill-opacity:1;stroke:none;stroke-width:0.0587224;stroke-linecap:round;stroke-linejoin:round;stroke-miterlimit:4;stroke-dasharray:none;stroke-opacity:1"
         id="ellipse1793"
         cx="31.741562"
         cy="24.460516"
         ry="1.6829439"
         rx="1.4279183" />
      <path
         style="display:inline;fill:#003380;stroke:none;stroke-width:0.26458px;stroke-linecap:butt;stroke-linejoin:miter;stroke-opacity:1"
         d="m 33.218022,26.632799 c -0.05738,-0.270783 -0.172199,-0.812657 -0.278989,-1.040441 -0.106791,-0.227785 -0.205488,-0.141173 -0.136948,0.230657 0.06854,0.371831 0.30422,1.028512 0.410941,1.256123 0.106722,0.227611 0.08456,0.02617 0.07347,-0.07469 -0.0111,-0.100865 -0.01109,-0.100865 -0.06847,-0.371649 z"
         id="path1795"
         inkscape:path-effect="#path-effect1825"
         inkscape:original-d="m 33.2754,26.903583 c -0.114554,-0.54161 -0.229377,-1.083483 -0.344462,-1.62562 -0.09845,0.08689 -0.197146,0.173503 -0.296118,0.259858 0.235955,0.656971 0.471635,1.313652 0.707056,1.970081 -0.02188,-0.20118 -0.04405,-0.402615 -0.06648,-0.604319 z" />
      <path
         style="display:inline;fill:#0055d4;stroke:none;stroke-width:0.276733px;stroke-linecap:butt;stroke-linejoin:miter;stroke-opacity:1"
         d="m 30.214663,24.444493 c 0.161016,0.147183 0.482757,0.441285 0.840883,0.632559 0.358127,0.191274 0.752582,0.279906 1.078707,0.320153 0.326126,0.04025 0.583954,0.03219 0.707214,0.120953 0.123259,0.08876 0.112239,0.274085 -0.02869,0.40185 -0.14093,0.127765 -0.41198,0.198269 -0.722681,0.253677 -0.3107,0.05541 -0.661082,0.0957 -0.914479,0.06057 -0.253398,-0.03513 -0.409857,-0.145915 -0.58951,-0.346306 -0.179653,-0.200391 -0.38239,-0.490458 -0.475063,-0.770496 -0.09267,-0.280039 -0.07504,-0.549965 -0.06622,-0.685051 0.0088,-0.135087 0.0088,-0.13509 0.16984,0.01209 z"
         id="path1797"
         inkscape:path-effect="#path-effect1827"
         inkscape:original-d="m 30.053648,24.29731 c 0.32203,0.294367 0.643771,0.588469 0.965224,0.882306 0.394758,0.0889 0.789213,0.177532 1.183387,0.265901 0.258128,-0.0078 0.515957,-0.01585 0.773502,-0.02417 -0.01072,0.185593 -0.02174,0.370915 -0.03306,0.555974 -0.270771,0.07077 -0.541822,0.141272 -0.813163,0.211513 -0.350109,0.04055 -0.70049,0.08084 -1.051169,0.120863 -0.156178,-0.11053 -0.312637,-0.221319 -0.469389,-0.332376 -0.202455,-0.289814 -0.405192,-0.579881 -0.608224,-0.87022 0.01792,-0.269669 0.03556,-0.539594 0.05289,-0.809788 z" />
      <path
         id="path1799"
         style="display:inline;fill:#003380;stroke:none;stroke-width:0.26458px;stroke-linecap:butt;stroke-linejoin:miter;stroke-opacity:1"
         d="m 31.669517,22.636925 c -0.161777,0.0058 -0.330465,0.03426 -0.495571,0.0894 -0.44028,0.147025 -0.853453,0.487265 -1.083124,0.906394 -0.229666,0.419127 -0.276053,0.91663 -0.299203,1.165288 -0.0026,0.220633 0.02352,0.363132 0.106885,0.496352 -0.0051,0.415146 0.162269,1.152534 0.283267,1.581531 0.121,0.428997 0.237982,0.487252 0.242876,0.07235 0.0049,-0.414909 -0.102143,-1.302837 -0.155544,-1.747159 -0.02143,-0.17826 -0.03189,-0.247627 -0.04392,-0.310571 0.133803,-0.147981 0.240529,-0.439917 0.368446,-0.723978 0.127919,-0.284059 0.276983,-0.560153 0.538978,-0.740514 0.261998,-0.180362 0.636365,-0.264921 0.944636,-0.254761 0.308267,0.01016 0.550125,0.114931 0.617524,0.04754 0.0674,-0.06739 -0.03909,-0.306926 -0.326074,-0.450096 -0.179361,-0.08948 -0.429545,-0.141512 -0.699174,-0.131774 z"
         sodipodi:nodetypes="sssccssscssssss" />
    </g>
  </g>
  <g
     inkscape:groupmode="layer"
     id="layer3"
     inkscape:label="rings"
     style="display:inline"
     transform="translate(0.16536251,0.16536251)"
     sodipodi:insensitive="true">
    <circle
       style="display:inline;fill:none;stroke:#004cc1;stroke-width:0.330725;stroke-linecap:round;stroke-linejoin:round;stroke-miterlimit:4;stroke-dasharray:none;stroke-opacity:1;paint-order:fill markers stroke"
       id="path1850"
       cx="16.933121"
       cy="16.933121"
       r="16.933121" />
    <circle
       style="display:inline;fill:none;stroke:#004cc1;stroke-width:0.330725;stroke-linecap:round;stroke-linejoin:round;stroke-miterlimit:4;stroke-dasharray:none;stroke-opacity:1;paint-order:fill markers stroke"
       id="path2111"
       cx="16.933121"
       cy="16.933121"
       r="13.662267" />
  </g>
  <g
     inkscape:groupmode="layer"
     id="layer5"
     inkscape:label="wheel"
     style="display:none"
     transform="translate(0.16536251,0.16536251)"
     sodipodi:insensitive="true">
    <path
       id="circle1942"
       style="display:inline;fill:#002255;fill-opacity:1;stroke:#00c6d9;stroke-width:0.25;stroke-linecap:round;stroke-linejoin:round;stroke-miterlimit:4;stroke-dasharray:none;stroke-opacity:1;paint-order:fill markers stroke"
       d="M 63.703125,0 A 64.000003,64.000003 0 0 0 0,64 64.000003,64.000003 0 0 0 64,128 64.000003,64.000003 0 0 0 128,64 64.000003,64.000003 0 0 0 64,0 64.000003,64.000003 0 0 0 63.703125,0 Z m 0.308594,2.5 0.142578,0.4023438 c 0.249263,0.7062268 0.447491,0.9698144 1.611328,2.1425781 1.271956,1.2815768 1.440076,1.5263466 1.480469,2.1621093 0.01361,0.2114257 -0.0051,0.4871629 -0.03906,0.6132813 -0.08814,0.3258939 -0.365319,0.6585207 -0.708984,0.8515625 -0.245068,0.1376635 -0.355488,0.1668572 -0.652344,0.1679688 -0.196991,6.675e-4 -0.451678,-0.029305 -0.564453,-0.068359 -0.310303,-0.1073022 -0.70711,-0.4509567 -0.958984,-0.828125 l -0.22461,-0.3378906 v 0.3515624 c 0,0.4280378 0.170937,1.1233846 0.351563,1.4316407 0.289326,0.4937161 0.942359,0.9041097 1.617187,1.0156247 0.592842,0.09794 0.591812,0.09862 0.591797,0.212891 0,0.106149 -0.04438,0.107421 -2.642578,0.107421 -2.578695,3e-6 -2.642578,-0.0024 -2.642578,-0.105468 0,-0.08494 0.04956,-0.113314 0.257812,-0.140625 0.794633,-0.104279 1.195552,-0.269996 1.613282,-0.671875 0.43264,-0.41607 0.65993,-0.9761478 0.722656,-1.7734375 C 64.00516,7.547973 64.00389,7.5487341 63.695315,8.0117195 63.324574,8.5673383 62.836885,8.8396171 62.216797,8.8378906 61.771416,8.836688 61.529785,8.7460319 61.220703,8.4667969 60.892258,8.169881 60.753341,7.83993 60.75,7.34375 60.747645,6.9837039 60.769913,6.8843645 60.931641,6.5527344 61.079649,6.2495671 61.225727,6.0705213 61.662109,5.65625 63.310341,4.0917236 63.646373,3.6781146 63.884766,2.9101562 Z m -0.152344,9.863281 A 51.637564,51.637564 0 0 1 64,12.363281 51.637564,51.637564 0 0 1 115.63672,64 51.637564,51.637564 0 0 1 64,115.63672 51.637564,51.637564 0 0 1 12.363281,64 51.637564,51.637564 0 0 1 63.859375,12.363281 Z m 41.355465,6.640625 a 1.903806,1.903806 0 0 1 1.87891,1.902344 1.904297,1.904297 0 0 1 0,3.808594 h -3.80859 V 20.90625 a 1.903806,1.903806 0 0 1 1.92968,-1.902344 z m -84.701168,1.509766 c 1.612106,0.583136 3.335846,0.790245 5.183594,0.58789 -0.202355,1.847746 0.0067,3.573441 0.589843,5.185547 -1.612106,-0.583133 -3.337798,-0.792198 -5.185547,-0.589843 0.202355,-1.847749 -0.0048,-3.571488 -0.58789,-5.183594 z M 6.2929688,60.75 c 0.7889447,0 1.4277343,0.64074 1.4277343,1.429688 -4.53e-5,0.782851 -0.6295379,1.421372 -1.4101562,1.429687 -0.1383325,0.0014 -0.15313,0.214844 0.033203,0.214844 0.2934387,0 1.8532404,-0.282524 2.1503906,-0.433594 -0.041689,0.164873 -0.076172,0.439256 -0.076172,0.609375 0,0.170138 0.034596,0.44451 0.076172,0.609375 C 8.1969942,64.458324 6.6371962,64.175781 6.34375,64.175781 c -0.1864842,0 -0.1716868,0.213374 -0.033203,0.214844 0.7806637,0.0082 1.4101562,0.646794 1.4101562,1.429687 0,0.78895 -0.6387859,1.429688 -1.4277343,1.429688 C 5.504024,67.25 4.8632812,66.609265 4.8632812,65.820312 4.8632888,65.394517 5.050027,65.012 5.3457031,64.75 5.4635125,64.645457 5.2810864,64.490702 5.2109375,64.632812 4.9777906,65.104987 4.4916461,65.429682 3.9296875,65.429688 3.1407388,65.429688 2.5,64.788941 2.5,64 c 0,-0.788945 0.6407426,-1.429688 1.4296875,-1.429688 0.5619775,-1.1e-5 1.0481258,0.324661 1.28125,0.796876 C 5.2810108,63.509224 5.4633991,63.354354 5.3457031,63.25 5.0500761,62.987954 4.8632812,62.605479 4.8632812,62.179688 4.8632775,61.390743 5.504024,60.75 6.2929688,60.75 Z m 115.4140612,0 c 0.78895,0 1.42969,0.640739 1.42969,1.429688 0,0.425803 -0.18682,0.808274 -0.48242,1.070312 -0.11781,0.104543 0.0646,0.2593 0.13476,0.117188 0.23315,-0.47219 0.71929,-0.796872 1.28125,-0.796876 0.78895,10e-7 1.42969,0.640747 1.42969,1.429688 0,0.788941 -0.64074,1.429682 -1.42969,1.429688 -0.56197,1.1e-5 -1.04812,-0.324667 -1.28125,-0.796876 -0.0702,-0.14211 -0.25246,0.01283 -0.13476,0.117188 0.29562,0.262042 0.48242,0.644517 0.48242,1.070312 0,0.788941 -0.64075,1.429692 -1.42969,1.429688 -0.78895,4e-6 -1.42773,-0.640738 -1.42773,-1.429688 -1e-5,-0.782899 0.62953,-1.421372 1.41015,-1.429687 0.13834,-0.0014 0.15313,-0.214844 -0.0332,-0.214844 -0.29344,0 -1.85324,0.282562 -2.15039,0.433594 0.0417,-0.164876 0.0762,-0.439256 0.0762,-0.609375 0,-0.170126 -0.0346,-0.44451 -0.0762,-0.609375 0.29714,0.151051 1.85694,0.433594 2.15039,0.433594 0.18648,0 0.17169,-0.213362 0.0332,-0.214844 -0.78066,-0.0082 -1.41015,-0.64679 -1.41015,-1.429687 0,-0.788945 0.63878,-1.429688 1.42773,-1.429688 z m -19.99414,40.96289 c 1.61211,0.58328 3.3378,0.7922 5.18555,0.58984 -0.20236,1.84776 0.005,3.57149 0.58789,5.1836 -1.61211,-0.58329 -3.33585,-0.79025 -5.1836,-0.58789 0.20236,-1.84775 -0.007,-3.57344 -0.58984,-5.18555 z m -80.804687,1.57227 h 3.806641 v 3.80859 a 1.903806,1.903806 0 0 1 -3.806641,0 1.904295,1.904295 0 0 1 0,-3.80859 z m 43.076172,13.99023 c 2.578664,3e-5 2.642578,0.002 2.642578,0.10547 -4e-6,0.0849 -0.04956,0.1133 -0.257812,0.14062 -0.794652,0.10428 -1.195552,0.27 -1.613282,0.67188 -0.432557,0.41615 -0.659938,0.97614 -0.722656,1.77344 -0.03836,0.48524 -0.03708,0.48448 0.271485,0.0215 0.370738,-0.55562 0.85851,-0.82781 1.478515,-0.82617 0.445393,10e-4 0.687012,0.0919 0.996094,0.37109 0.328445,0.29693 0.467362,0.62687 0.470703,1.12305 0.0023,0.36004 -0.01991,0.45939 -0.181641,0.79102 -0.148008,0.30316 -0.294079,0.4822 -0.730468,0.89648 -1.648235,1.56452 -1.984275,1.97813 -2.222657,2.74609 L 63.988281,125.5 63.845703,125.09766 c -0.249263,-0.70623 -0.447491,-0.96982 -1.611328,-2.14258 -1.271952,-1.28158 -1.440076,-1.52635 -1.480469,-2.16211 -0.01361,-0.21143 0.0051,-0.48716 0.03906,-0.61328 0.08814,-0.32588 0.363373,-0.65851 0.707031,-0.85157 0.24503,-0.13764 0.357445,-0.16687 0.654297,-0.16796 0.196991,-6.8e-4 0.451682,0.0293 0.564453,0.0684 0.310303,0.1073 0.707106,0.45095 0.958984,0.82812 l 0.22461,0.33789 v -0.35156 c -4e-6,-0.42804 -0.170937,-1.12338 -0.351563,-1.43164 -0.289326,-0.49372 -0.942359,-0.90411 -1.617187,-1.01563 -0.592846,-0.0979 -0.591808,-0.0986 -0.591797,-0.21289 1.1e-5,-0.10613 0.04434,-0.10742 2.642578,-0.10742 z"
       transform="scale(0.26458)" />
  </g>
  <g
     inkscape:groupmode="layer"
     id="layer2"
     inkscape:label="suits"
     style="display:inline"
     sodipodi:insensitive="true"
     transform="translate(0.16536251,0.16536251)">
    <path
       style="display:inline;fill:#000080;stroke:none;stroke-width:0.0150583"
       d="m 16.237951,2.8095781 c 0,-0.022472 0.01338,-0.029713 0.06848,-0.036939 0.210244,-0.02759 0.315978,-0.071731 0.426501,-0.1780603 0.114468,-0.1100838 0.174903,-0.2582284 0.191499,-0.4691753 0.01015,-0.1283823 0.0098,-0.1283964 -0.07184,-0.0059 -0.09809,0.147006 -0.227107,0.2191875 -0.39117,0.2187307 -0.117839,-3.182e-4 -0.181966,-0.02415 -0.263743,-0.09803 -0.0869,-0.078558 -0.12352,-0.165946 -0.124404,-0.2972253 -6.23e-4,-0.095261 0.0054,-0.1213113 0.04819,-0.209054 0.03916,-0.080212 0.07777,-0.1275894 0.193228,-0.2371973 0.436089,-0.4139424 0.524939,-0.52378651 0.588013,-0.72697293 l 0.03361,-0.10826583 0.03752,0.1063036 c 0.06595,0.18685368 0.118636,0.25690816 0.426564,0.56719796 0.336534,0.3390796 0.380691,0.4036441 0.391378,0.5718542 0.0036,0.055939 -9.26e-4,0.1290116 -0.0099,0.16238 -0.02332,0.086225 -0.09664,0.1743513 -0.187567,0.2254263 -0.06484,0.036423 -0.09447,0.043996 -0.173012,0.04429 -0.05212,1.768e-4 -0.119211,-0.0081 -0.149049,-0.018433 -0.0821,-0.02839 -0.187013,-0.1188045 -0.253654,-0.2185957 l -0.05972,-0.089443 v 0.093055 c 0,0.1132502 0.04514,0.2972097 0.09293,0.3787681 0.07655,0.1306274 0.249442,0.2391181 0.427988,0.2686228 0.156854,0.025913 0.156707,0.02585 0.156703,0.056082 0,0.028086 -0.01182,0.02856 -0.699251,0.02856 -0.682271,7e-7 -0.69925,-6.809e-4 -0.69925,-0.02795 z"
       id="path5852"
       inkscape:connector-curvature="0" />
    <path
       style="display:inline;fill:#000080;stroke:none;stroke-width:0.0150583"
       d="m 17.628291,31.056661 c -1e-6,0.02247 -0.01338,0.02971 -0.06848,0.03694 -0.210249,0.02759 -0.315982,0.07173 -0.426505,0.17806 -0.114446,0.110105 -0.174905,0.258227 -0.191499,0.469175 -0.01015,0.128385 -0.0098,0.1284 0.07184,0.0059 0.09809,-0.147005 0.227129,-0.219166 0.39117,-0.218731 0.117842,3.2e-4 0.181967,0.02415 0.263744,0.09803 0.0869,0.07856 0.12352,0.165947 0.124404,0.297226 6.2e-4,0.09526 -0.0054,0.121312 -0.04819,0.209054 -0.03916,0.08021 -0.07777,0.127592 -0.19323,0.237201 -0.43609,0.413941 -0.524939,0.523787 -0.58801,0.726975 l -0.03361,0.108266 -0.03752,-0.106304 c -0.06595,-0.186854 -0.118641,-0.256908 -0.426569,-0.567198 -0.336533,-0.339079 -0.380691,-0.403644 -0.391378,-0.571853 -0.0036,-0.05594 9.26e-4,-0.129012 0.0099,-0.162381 0.02332,-0.08622 0.09664,-0.17435 0.187565,-0.225429 0.06483,-0.03642 0.09447,-0.044 0.173011,-0.04429 0.05212,-1.8e-4 0.119212,0.0081 0.149049,0.01843 0.0821,0.02839 0.187012,0.118805 0.253654,0.218596 l 0.05972,0.08944 3e-6,-0.09305 c -1e-6,-0.113251 -0.04514,-0.297208 -0.09293,-0.378767 -0.07655,-0.130628 -0.249442,-0.239118 -0.427988,-0.268623 -0.156855,-0.02591 -0.156707,-0.02585 -0.156704,-0.05608 3e-6,-0.02808 0.01181,-0.02856 0.699251,-0.02856 0.682263,8e-6 0.699242,6.9e-4 0.699242,0.02796 z"
       id="path1937"
       inkscape:connector-curvature="0" />
    <path
       style="display:inline;fill:#000080;fill-opacity:1;stroke:none;stroke-width:0.0145128;stroke-linecap:square;stroke-linejoin:round;stroke-miterlimit:3.99942;stroke-dasharray:none;stroke-opacity:1"
       d="m 0.66145146,16.933083 c 0,0.208738 0.169526,0.378266 0.37826604,0.378266 0.148683,-1e-6 0.277357,-0.08586 0.339043,-0.210788 0.01856,-0.0376 0.06662,0.0034 0.03545,0.03106 -0.07823,0.06932 -0.127565,0.170444 -0.127567,0.283101 0,0.208741 0.169527,0.378268 0.378266,0.378268 0.20874,0 0.377926,-0.169528 0.377926,-0.378268 0,-0.207138 -0.166615,-0.376083 -0.373163,-0.378253 -0.03664,-3.89e-4 -0.04044,-0.05662 0.0089,-0.05662 0.07764,0 0.489974,0.07464 0.568593,0.114605 -0.011,-0.04362 -0.02013,-0.116319 -0.02013,-0.161334 0,-0.04501 0.0091,-0.117712 0.02013,-0.161334 -0.07862,0.03997 -0.490955,0.114605 -0.568593,0.114605 -0.0493,0 -0.0455,-0.05624 -0.0089,-0.05662 0.206536,-0.0022 0.373151,-0.171127 0.373163,-0.378254 0,-0.208739 -0.169186,-0.378267 -0.377925,-0.378267 -0.208739,0 -0.378267,0.169528 -0.378266,0.378267 0,0.112656 0.04935,0.213771 0.127567,0.283103 0.03114,0.02761 -0.01691,0.06864 -0.03545,0.03106 -0.06168,-0.124938 -0.190357,-0.210792 -0.339045,-0.210789 -0.20873904,0 -0.37826604,0.169527 -0.37826604,0.378266 z"
       id="path3211" />
    <path
       style="display:inline;fill:#000080;fill-opacity:1;stroke:none;stroke-width:0.0145128;stroke-linecap:square;stroke-linejoin:round;stroke-miterlimit:3.99942;stroke-dasharray:none;stroke-opacity:1"
       d="m 33.204792,16.933145 c 0,-0.208738 -0.169527,-0.378266 -0.378266,-0.378266 -0.148684,1e-6 -0.277357,0.08586 -0.339042,0.210792 -0.01856,0.0376 -0.06662,-0.0034 -0.03545,-0.03106 0.07821,-0.06933 0.127567,-0.170443 0.127567,-0.283102 0,-0.20874 -0.169527,-0.378267 -0.378266,-0.378267 -0.20874,0 -0.377925,0.169528 -0.377925,0.378267 0,0.207139 0.166614,0.376084 0.373163,0.378253 0.03664,3.92e-4 0.04044,0.05662 -0.0089,0.05662 -0.07764,0 -0.489976,-0.07464 -0.568594,-0.114605 0.011,0.04362 0.02013,0.116324 0.02013,0.161336 -3e-6,0.04501 -0.0091,0.117713 -0.02013,0.161336 0.07862,-0.03996 0.490955,-0.114605 0.568594,-0.114605 0.0493,0 0.0455,0.05624 0.0089,0.05662 -0.206536,0.0022 -0.37315,0.171127 -0.373148,0.378267 0,0.20874 0.169185,0.378267 0.377925,0.378266 0.208738,1e-6 0.378266,-0.169527 0.378265,-0.378265 0,-0.112657 -0.04935,-0.213772 -0.127566,-0.283103 -0.03114,-0.02761 0.01691,-0.06864 0.03547,-0.03104 0.06168,0.124937 0.190356,0.210792 0.339044,0.210789 0.208739,-1e-6 0.378266,-0.169528 0.378266,-0.378266 z"
       id="path1996" />
    <use
       xlink:href="#heart"
       class="outline "
       fill="#ff0000"
       transform="matrix(0,0.00503709,-0.00503709,0,6.5390526,27.32719)"
       id="use2042"
       x="0"
       y="0"
       width="100%"
       height="100%"
       style="display:inline;fill:#2c89a0" />
    <use
       xlink:href="#heart"
       class="outline "
       fill="#ff0000"
       transform="matrix(0,-0.00503709,0.00503709,0,27.32719,6.5390516)"
       id="use2056"
       x="0"
       y="0"
       width="100%"
       height="100%"
       style="display:inline;fill:#2c89a0" />
    <path
       id="path3200"
       d="m 28.43893,28.438928 c -0.154282,-0.426531 -0.209265,-0.882909 -0.155726,-1.371787 -0.488877,0.05354 -0.945256,-0.0014 -1.371787,-0.155725 0.154282,0.426531 0.209265,0.88291 0.155726,1.371786 0.488877,-0.05354 0.945256,0.0014 1.371787,0.155726 z"
       style="display:inline;fill:#2c89a0;fill-opacity:1;stroke:none;stroke-width:0.00429943;stroke-linecap:square;stroke-linejoin:round;stroke-miterlimit:3.99942;stroke-dasharray:none;stroke-opacity:1" />
    <path
       id="path2109"
       d="m 5.4273135,5.427312 c 0.154282,0.426531 0.209265,0.8829098 0.155726,1.3717871 0.488877,-0.053539 0.945255,0.00144 1.371786,0.1557254 -0.154282,-0.426531 -0.209264,-0.8829098 -0.155725,-1.3717864 -0.488877,0.053539 -0.945256,-0.00144 -1.371787,-0.1557261 z"
       style="display:inline;fill:#2c89a0;fill-opacity:1;stroke:none;stroke-width:0.00429943;stroke-linecap:square;stroke-linejoin:round;stroke-miterlimit:3.99942;stroke-dasharray:none;stroke-opacity:1" />
  </g>
</svg>
