<?xml version="1.0" encoding="UTF-8"?>
<svg version="1.1" viewBox="0 0 300 400" xmlns="http://www.w3.org/2000/svg">
  <path d="m149.98 26.578-1.1602 1.8438c-6.5248 10.274-17.523 22.391-30.428 33.514-6.9598 6.0069-11.849 9.8809-25.955 20.59-9.9632 7.5604-16.219 12.365-19.574 15.1-24.173 19.636-35.192 34.987-38.734 53.939-3.6249 19.346-1.8234 36.145 5.1777 48.324 2.2163 3.8527 3.7496 5.8816 6.8359 9.0508 10.067 10.398 24.69 15.889 43.809 16.428 14.127 0.41427 26.306-2.5274 35.689-8.6172 6.0581-4.4948 10.851-9.3287 14.584-15.018l-0.14649 2.0703c-0.53854 8.6168-1.8835 21.937-2.8984 28.648-4.1427 27.363-13.01 42.088-31.01 51.492-5.3027 2.7756-6.7014 3.78-13.811 7.1602l-7.3594 2.3184v15h20v50h-20v15h130v-15h-20l-25-25 25-25h20v-15l-8.3301-2.7812c-6.5913-2.5911-5.0508-2.358-12.012-6.3027-10.245-6.4385-18.87-13.298-24.027-23.986-5.1162-10.647-8.015-24.214-9.9414-46.502-0.64212-7.4983-0.97425-11.911-0.91211-11.973 0.0207-0.0414 0.56024 0.70342 1.1816 1.6562 6.3176 9.5282 15.783 16.178 27.797 19.555 2.5685 0.72497 6.2752 1.4291 9.8379 1.8848 4.122 0.49713 14.458 0.49635 18.953-0.0215 15.742-1.8228 26.969-6.4818 35.586-14.809 13.05-12.615 17.359-31.961 12.885-57.791-3.3556-19.201-14.292-34.674-38.527-54.414-3.6042-2.9413-9.1351-7.2094-19.326-14.936-18.435-14.002-24.981-19.327-34.24-27.943-8.7411-8.1404-17.337-18.206-22.764-26.637zm-34.98 281.84h15l25 25-25 25h-15zm30 0h35l-17.5 17.5zm17.5 32.5 17.5 17.5h-35z" fill="none" stroke="#f0f" stroke-linecap="round" stroke-linejoin="round" stroke-width="8"/>
</svg>
